<svg xmlns="http://www.w3.org/2000/svg" viewBox="0 0 295 221"><path fill="#0040A3" d=" M 145 42 L 144 43 L 142 43 L 141 44 L 139 44 L 138 45 L 137 45 L 136 46 L 135 46 L 134 47 L 133 47 L 132 48 L 131 48 L 123 56 L 123 57 L 121 59 L 121 60 L 120 61 L 120 63 L 119 64 L 119 65 L 118 66 L 118 69 L 117 70 L 117 74 L 116 75 L 116 159 L 119 159 L 120 158 L 121 158 L 122 157 L 123 157 L 124 156 L 126 156 L 127 155 L 128 155 L 129 154 L 131 154 L 132 153 L 133 153 L 134 152 L 136 152 L 137 151 L 138 151 L 139 150 L 141 150 L 142 149 L 143 149 L 144 148 L 146 148 L 147 147 L 148 147 L 148 79 L 147 78 L 147 75 L 146 74 L 146 73 L 145 72 L 145 71 L 139 65 L 138 65 L 137 64 L 135 64 L 134 63 L 129 63 L 128 62 L 128 61 L 129 60 L 129 59 L 133 55 L 134 55 L 137 52 L 138 52 L 139 51 L 140 51 L 141 50 L 143 50 L 144 49 L 148 49 L 149 48 L 156 48 L 157 49 L 160 49 L 161 50 L 163 50 L 164 51 L 165 51 L 166 52 L 167 52 L 170 55 L 171 55 L 175 59 L 175 60 L 177 62 L 177 63 L 178 64 L 178 65 L 179 66 L 179 67 L 180 68 L 180 70 L 181 71 L 181 159 L 182 160 L 187 160 L 188 159 L 188 76 L 187 75 L 187 70 L 186 69 L 186 66 L 185 65 L 185 64 L 184 63 L 184 61 L 183 60 L 183 59 L 180 56 L 180 55 L 174 49 L 173 49 L 171 47 L 170 47 L 169 46 L 168 46 L 167 45 L 166 45 L 165 44 L 163 44 L 162 43 L 160 43 L 159 42 Z M 142 25 L 141 26 L 138 26 L 137 27 L 135 27 L 134 28 L 132 28 L 131 29 L 130 29 L 129 30 L 128 30 L 127 31 L 126 31 L 124 33 L 123 33 L 122 34 L 121 34 L 116 39 L 115 39 L 115 40 L 109 46 L 109 47 L 107 49 L 107 50 L 106 51 L 106 52 L 105 53 L 105 54 L 104 55 L 104 56 L 103 57 L 103 58 L 102 59 L 102 61 L 101 62 L 101 65 L 100 66 L 100 73 L 99 74 L 99 152 L 98 153 L 87 153 L 87 160 L 107 160 L 108 159 L 108 70 L 109 69 L 109 66 L 110 65 L 110 62 L 111 61 L 111 60 L 112 59 L 112 58 L 113 57 L 113 56 L 115 54 L 115 53 L 117 51 L 117 50 L 125 42 L 126 42 L 129 39 L 130 39 L 131 38 L 132 38 L 133 37 L 134 37 L 135 36 L 137 36 L 138 35 L 140 35 L 141 34 L 144 34 L 145 33 L 158 33 L 159 34 L 163 34 L 164 35 L 166 35 L 167 36 L 169 36 L 170 37 L 171 37 L 172 38 L 173 38 L 175 40 L 176 40 L 179 43 L 180 43 L 186 49 L 186 50 L 189 53 L 189 54 L 191 56 L 191 57 L 192 58 L 192 59 L 193 60 L 193 62 L 194 63 L 194 65 L 195 66 L 195 69 L 196 70 L 196 159 L 197 160 L 217 160 L 217 153 L 206 153 L 205 152 L 205 116 L 204 115 L 204 113 L 205 112 L 205 110 L 204 109 L 204 93 L 205 92 L 205 90 L 204 89 L 204 84 L 205 83 L 205 78 L 204 77 L 204 68 L 203 67 L 203 64 L 202 63 L 202 60 L 201 59 L 201 58 L 200 57 L 200 55 L 199 54 L 199 53 L 197 51 L 197 50 L 196 49 L 196 48 L 194 46 L 194 45 L 184 35 L 183 35 L 181 33 L 180 33 L 179 32 L 178 32 L 176 30 L 175 30 L 174 29 L 173 29 L 172 28 L 170 28 L 169 27 L 167 27 L 166 26 L 163 26 L 162 25 Z"/></svg>