<svg xmlns="http://www.w3.org/2000/svg" viewBox="0 0 295 221"><path fill="#0040A3" d=" M 148 41 L 147 42 L 147 46 L 146 47 L 146 52 L 145 53 L 145 58 L 144 59 L 144 64 L 143 65 L 143 69 L 142 70 L 142 75 L 141 76 L 141 82 L 140 83 L 140 89 L 139 90 L 139 92 L 138 93 L 137 92 L 137 91 L 136 90 L 136 86 L 135 85 L 135 82 L 134 81 L 134 78 L 133 77 L 133 74 L 132 73 L 132 70 L 131 69 L 128 69 L 127 70 L 127 72 L 126 73 L 126 75 L 125 76 L 125 78 L 124 79 L 124 81 L 123 82 L 123 84 L 122 85 L 122 87 L 121 88 L 121 89 L 120 90 L 112 90 L 111 91 L 111 92 L 110 93 L 110 97 L 109 98 L 109 101 L 108 102 L 108 104 L 107 105 L 105 103 L 105 100 L 104 99 L 104 97 L 103 96 L 103 94 L 102 93 L 102 90 L 101 89 L 101 85 L 100 84 L 100 81 L 99 80 L 99 76 L 98 75 L 98 74 L 97 73 L 93 73 L 93 74 L 92 75 L 92 77 L 91 78 L 91 79 L 90 80 L 90 82 L 89 83 L 89 84 L 88 85 L 88 86 L 87 87 L 87 88 L 85 90 L 56 90 L 55 91 L 55 94 L 56 95 L 89 95 L 91 93 L 91 91 L 92 90 L 92 89 L 93 88 L 93 87 L 95 85 L 96 86 L 96 89 L 97 90 L 97 93 L 98 94 L 98 97 L 99 98 L 99 101 L 100 102 L 100 105 L 101 106 L 101 109 L 102 110 L 102 113 L 103 114 L 103 117 L 104 118 L 104 120 L 105 121 L 108 121 L 109 120 L 109 119 L 110 118 L 110 115 L 111 114 L 111 111 L 112 110 L 112 106 L 113 105 L 113 102 L 114 101 L 114 98 L 115 97 L 115 96 L 116 95 L 124 95 L 125 94 L 125 93 L 126 92 L 126 90 L 127 89 L 127 87 L 128 86 L 128 85 L 129 84 L 130 85 L 130 87 L 131 88 L 131 91 L 132 92 L 132 96 L 133 97 L 133 100 L 134 101 L 134 105 L 135 106 L 135 109 L 136 110 L 136 112 L 140 112 L 141 111 L 141 108 L 142 107 L 142 102 L 143 101 L 143 96 L 144 95 L 144 89 L 145 88 L 145 84 L 146 83 L 146 79 L 147 78 L 147 73 L 148 72 L 148 68 L 149 67 L 151 69 L 151 76 L 152 77 L 152 84 L 153 85 L 153 91 L 154 92 L 154 99 L 155 100 L 155 105 L 156 106 L 156 112 L 157 113 L 157 119 L 158 120 L 158 127 L 159 128 L 159 134 L 160 135 L 160 141 L 162 143 L 164 143 L 166 141 L 166 137 L 167 136 L 167 130 L 168 129 L 168 125 L 169 124 L 169 120 L 170 119 L 170 115 L 171 114 L 171 110 L 172 109 L 172 105 L 173 104 L 173 99 L 174 98 L 174 96 L 175 95 L 176 95 L 177 96 L 177 98 L 178 99 L 178 100 L 179 101 L 179 102 L 181 104 L 183 104 L 185 102 L 185 99 L 186 98 L 186 95 L 187 94 L 187 91 L 188 90 L 188 87 L 189 86 L 189 84 L 190 83 L 190 81 L 191 80 L 193 82 L 193 85 L 194 86 L 194 89 L 195 90 L 195 94 L 196 95 L 196 98 L 197 99 L 197 102 L 198 103 L 198 106 L 199 107 L 199 109 L 200 110 L 200 112 L 201 113 L 204 113 L 205 112 L 205 111 L 206 110 L 206 109 L 207 108 L 207 106 L 208 105 L 208 104 L 209 103 L 209 102 L 210 101 L 210 99 L 211 98 L 211 97 L 213 95 L 246 95 L 247 94 L 247 92 L 245 90 L 210 90 L 207 93 L 207 95 L 206 96 L 206 97 L 205 98 L 205 99 L 204 100 L 203 100 L 202 99 L 202 97 L 201 96 L 201 94 L 200 93 L 200 90 L 199 89 L 199 86 L 198 85 L 198 81 L 197 80 L 197 77 L 196 76 L 196 73 L 195 72 L 195 69 L 194 68 L 194 65 L 193 64 L 189 64 L 189 65 L 188 66 L 188 69 L 187 70 L 187 73 L 186 74 L 186 77 L 185 78 L 185 81 L 184 82 L 184 85 L 183 86 L 183 89 L 181 91 L 179 89 L 179 87 L 178 86 L 178 85 L 177 84 L 177 83 L 176 82 L 176 81 L 175 80 L 173 80 L 171 82 L 171 86 L 170 87 L 170 91 L 169 92 L 169 97 L 168 98 L 168 102 L 167 103 L 167 106 L 166 107 L 166 111 L 165 112 L 165 117 L 164 118 L 163 118 L 162 117 L 162 111 L 161 110 L 161 104 L 160 103 L 160 98 L 159 97 L 159 91 L 158 90 L 158 84 L 157 83 L 157 76 L 156 75 L 156 69 L 155 68 L 155 61 L 154 60 L 154 54 L 153 53 L 153 47 L 152 46 L 152 42 L 151 41 Z"/></svg>