<svg xmlns="http://www.w3.org/2000/svg" viewBox="0 0 295 221"><path fill="#0040A3" d=" M 103 149 L 102 150 L 101 150 L 97 154 L 97 158 L 98 159 L 102 159 L 103 158 L 103 155 L 104 154 L 104 152 L 105 151 L 105 149 Z M 190 148 L 190 150 L 191 151 L 191 153 L 192 154 L 192 156 L 193 157 L 193 158 L 194 159 L 197 159 L 199 157 L 199 155 L 198 154 L 198 153 L 196 151 L 195 151 L 192 148 Z M 140 112 L 140 114 L 139 115 L 139 116 L 138 117 L 138 119 L 137 120 L 137 122 L 136 123 L 136 126 L 138 126 L 141 123 L 142 123 L 143 124 L 143 127 L 144 128 L 144 140 L 145 141 L 145 150 L 144 151 L 141 151 L 140 150 L 137 150 L 136 149 L 134 149 L 133 148 L 132 148 L 131 147 L 127 147 L 127 149 L 126 150 L 126 152 L 125 153 L 125 156 L 126 156 L 127 157 L 128 157 L 129 158 L 131 158 L 132 159 L 133 159 L 134 160 L 138 160 L 139 161 L 143 161 L 145 163 L 145 165 L 146 166 L 146 167 L 145 168 L 145 171 L 144 172 L 144 176 L 145 177 L 145 178 L 146 179 L 149 179 L 151 177 L 151 170 L 150 169 L 150 164 L 153 161 L 157 161 L 158 160 L 161 160 L 162 159 L 164 159 L 165 158 L 167 158 L 168 157 L 169 157 L 170 156 L 171 156 L 171 154 L 170 153 L 170 152 L 169 151 L 169 149 L 168 148 L 168 147 L 165 147 L 164 148 L 163 148 L 162 149 L 160 149 L 159 150 L 156 150 L 155 151 L 152 151 L 151 150 L 151 134 L 152 133 L 152 124 L 153 123 L 154 123 L 155 124 L 156 124 L 158 126 L 160 126 L 160 124 L 159 123 L 159 121 L 158 120 L 158 118 L 157 117 L 157 116 L 156 115 L 156 113 L 153 113 L 153 114 L 152 115 L 151 115 L 150 116 L 149 116 L 148 117 L 147 116 L 145 116 L 142 113 L 142 112 Z M 148 99 L 147 100 L 145 100 L 144 101 L 144 102 L 143 103 L 143 105 L 145 105 L 146 104 L 149 104 L 150 105 L 152 105 L 152 102 L 151 101 L 151 100 L 150 99 Z M 195 60 L 194 61 L 193 61 L 190 64 L 190 65 L 188 67 L 188 68 L 187 69 L 186 69 L 185 70 L 183 70 L 181 68 L 180 68 L 178 66 L 177 66 L 175 64 L 174 64 L 172 62 L 170 62 L 169 61 L 166 61 L 166 67 L 165 68 L 165 71 L 167 71 L 169 73 L 170 73 L 172 75 L 173 75 L 176 78 L 176 79 L 175 80 L 174 80 L 168 86 L 168 90 L 169 91 L 169 92 L 172 92 L 175 89 L 175 88 L 180 83 L 181 83 L 183 85 L 183 86 L 185 88 L 185 89 L 186 90 L 186 91 L 187 92 L 187 94 L 188 95 L 188 96 L 189 97 L 189 100 L 190 101 L 190 106 L 189 107 L 181 107 L 180 106 L 175 106 L 175 109 L 176 110 L 176 111 L 177 112 L 177 113 L 187 113 L 188 112 L 190 114 L 190 119 L 189 120 L 189 122 L 188 123 L 188 125 L 187 126 L 187 127 L 186 128 L 186 129 L 185 130 L 185 131 L 184 132 L 184 134 L 185 135 L 185 137 L 186 138 L 186 139 L 187 140 L 187 142 L 190 142 L 190 141 L 192 139 L 192 138 L 193 137 L 193 136 L 195 134 L 195 132 L 196 131 L 196 130 L 197 129 L 197 128 L 198 127 L 198 125 L 199 124 L 199 120 L 200 119 L 200 115 L 203 112 L 208 112 L 209 113 L 216 113 L 217 112 L 217 107 L 215 107 L 214 106 L 211 106 L 210 107 L 203 107 L 202 106 L 201 106 L 200 105 L 200 100 L 199 99 L 199 96 L 198 95 L 198 93 L 197 92 L 197 90 L 196 89 L 196 88 L 195 87 L 195 86 L 194 85 L 194 84 L 193 83 L 193 82 L 191 80 L 191 79 L 189 77 L 189 73 L 192 70 L 193 70 L 196 67 L 197 67 L 198 66 L 198 65 L 199 64 L 199 62 L 197 60 Z M 99 60 L 98 61 L 97 61 L 97 65 L 102 70 L 103 70 L 107 74 L 107 76 L 106 77 L 106 78 L 104 80 L 104 81 L 102 83 L 102 84 L 101 85 L 101 86 L 100 87 L 100 88 L 99 89 L 99 90 L 98 91 L 98 94 L 97 95 L 97 97 L 96 98 L 96 103 L 95 104 L 95 105 L 93 107 L 85 107 L 84 106 L 82 106 L 81 107 L 79 107 L 78 108 L 78 111 L 80 113 L 87 113 L 88 112 L 92 112 L 93 113 L 94 113 L 95 114 L 95 117 L 96 118 L 96 121 L 97 122 L 97 125 L 98 126 L 98 128 L 99 129 L 99 130 L 100 131 L 100 133 L 102 135 L 102 136 L 103 137 L 103 138 L 105 140 L 105 141 L 106 142 L 106 143 L 108 143 L 108 141 L 109 140 L 109 138 L 110 137 L 110 135 L 111 134 L 111 131 L 110 130 L 110 129 L 109 128 L 109 127 L 108 126 L 108 124 L 107 123 L 107 121 L 106 120 L 106 118 L 105 117 L 105 114 L 107 112 L 108 113 L 119 113 L 119 111 L 120 110 L 120 106 L 115 106 L 114 107 L 106 107 L 105 106 L 105 104 L 106 103 L 106 99 L 107 98 L 107 96 L 108 95 L 108 93 L 109 92 L 109 91 L 110 90 L 110 89 L 111 88 L 111 87 L 115 83 L 116 83 L 117 84 L 117 85 L 124 92 L 124 93 L 126 93 L 126 92 L 127 91 L 127 86 L 120 79 L 120 78 L 124 74 L 125 74 L 127 72 L 128 72 L 129 71 L 131 71 L 131 69 L 130 68 L 130 66 L 129 65 L 129 61 L 126 61 L 125 62 L 124 62 L 122 64 L 121 64 L 120 65 L 119 65 L 117 67 L 116 67 L 114 69 L 113 69 L 112 70 L 111 70 L 110 69 L 109 69 L 106 66 L 106 65 L 104 63 L 104 62 L 103 61 L 102 61 L 101 60 Z M 146 29 L 145 30 L 144 30 L 143 31 L 143 44 L 145 44 L 146 45 L 146 49 L 145 50 L 143 50 L 142 51 L 141 51 L 137 55 L 137 56 L 136 57 L 136 59 L 135 60 L 135 65 L 136 66 L 136 68 L 138 70 L 138 71 L 139 72 L 139 73 L 138 74 L 138 76 L 137 77 L 137 79 L 136 80 L 136 82 L 135 83 L 135 85 L 134 86 L 134 88 L 133 89 L 133 90 L 132 91 L 132 93 L 131 94 L 131 96 L 130 97 L 130 99 L 129 100 L 129 102 L 128 103 L 128 104 L 127 105 L 127 107 L 126 108 L 126 109 L 125 110 L 125 112 L 124 113 L 124 115 L 123 116 L 123 118 L 122 119 L 122 121 L 121 122 L 121 124 L 120 125 L 120 126 L 119 127 L 119 129 L 118 130 L 118 132 L 117 133 L 117 135 L 116 136 L 116 137 L 115 138 L 115 140 L 114 141 L 114 143 L 113 144 L 113 145 L 112 146 L 112 148 L 111 149 L 111 151 L 110 152 L 110 154 L 109 155 L 109 158 L 108 159 L 108 163 L 109 164 L 109 166 L 111 168 L 111 170 L 113 170 L 113 169 L 114 168 L 114 166 L 115 165 L 115 164 L 116 163 L 116 161 L 117 160 L 117 158 L 118 157 L 118 156 L 119 155 L 119 153 L 120 152 L 120 150 L 121 149 L 121 147 L 122 146 L 122 144 L 123 143 L 123 142 L 124 141 L 124 139 L 125 138 L 125 137 L 126 136 L 126 134 L 127 133 L 127 131 L 128 130 L 128 128 L 129 127 L 129 125 L 130 124 L 130 123 L 131 122 L 131 120 L 132 119 L 132 117 L 133 116 L 133 114 L 134 113 L 134 111 L 135 110 L 135 109 L 136 108 L 136 106 L 137 105 L 137 104 L 138 103 L 138 101 L 139 100 L 139 98 L 140 97 L 140 95 L 141 94 L 141 92 L 142 91 L 142 90 L 143 89 L 143 87 L 144 86 L 144 85 L 145 84 L 145 81 L 146 80 L 146 79 L 148 77 L 149 78 L 149 79 L 150 80 L 150 82 L 151 83 L 151 85 L 152 86 L 152 87 L 153 88 L 153 90 L 154 91 L 154 93 L 155 94 L 155 96 L 156 97 L 156 98 L 157 99 L 157 101 L 158 102 L 158 103 L 159 104 L 159 106 L 160 107 L 160 109 L 161 110 L 161 112 L 162 113 L 162 115 L 163 116 L 163 118 L 164 119 L 164 120 L 165 121 L 165 123 L 166 124 L 166 126 L 167 127 L 167 129 L 168 130 L 168 132 L 169 133 L 169 134 L 170 135 L 170 137 L 171 138 L 171 140 L 172 141 L 172 142 L 173 143 L 173 145 L 174 146 L 174 148 L 175 149 L 175 151 L 176 152 L 176 153 L 177 154 L 177 156 L 178 157 L 178 158 L 179 159 L 179 161 L 180 162 L 180 164 L 181 165 L 181 167 L 182 168 L 182 169 L 183 170 L 183 171 L 185 171 L 185 168 L 186 167 L 186 166 L 187 165 L 187 156 L 186 155 L 186 153 L 185 152 L 185 151 L 184 150 L 184 148 L 183 147 L 183 145 L 182 144 L 182 142 L 181 141 L 181 139 L 180 138 L 180 137 L 179 136 L 179 134 L 178 133 L 178 132 L 177 131 L 177 129 L 176 128 L 176 126 L 175 125 L 175 123 L 174 122 L 174 120 L 173 119 L 173 118 L 172 117 L 172 115 L 171 114 L 171 112 L 170 111 L 170 109 L 169 108 L 169 106 L 168 105 L 168 104 L 167 103 L 167 101 L 166 100 L 166 99 L 165 98 L 165 96 L 164 95 L 164 93 L 163 92 L 163 90 L 162 89 L 162 87 L 161 86 L 161 85 L 160 84 L 160 82 L 159 81 L 159 79 L 158 78 L 158 76 L 157 75 L 157 71 L 159 69 L 159 68 L 160 67 L 160 64 L 161 63 L 161 61 L 160 60 L 160 58 L 159 57 L 159 56 L 158 55 L 158 54 L 155 51 L 154 51 L 153 50 L 151 50 L 150 49 L 150 45 L 151 44 L 152 44 L 152 30 L 151 30 L 150 29 Z"/></svg>