<svg xmlns="http://www.w3.org/2000/svg" viewBox="0 0 295 221"><path fill="#0040A3" d=" M 171 40 L 149 62 L 149 63 L 148 64 L 147 64 L 142 59 L 139 59 L 138 60 L 138 63 L 146 71 L 148 71 L 165 54 L 165 53 L 175 43 L 175 41 L 174 41 L 173 40 Z M 145 30 L 145 35 L 144 36 L 143 36 L 142 37 L 140 37 L 139 38 L 138 38 L 135 41 L 134 41 L 134 42 L 132 44 L 132 45 L 130 47 L 125 47 L 125 51 L 128 51 L 129 52 L 129 76 L 128 77 L 123 77 L 123 86 L 128 86 L 129 87 L 129 91 L 128 92 L 128 99 L 127 100 L 127 109 L 126 110 L 126 118 L 125 119 L 125 127 L 124 128 L 124 135 L 123 136 L 123 143 L 122 144 L 122 151 L 121 152 L 121 160 L 120 161 L 120 170 L 119 171 L 118 171 L 117 172 L 103 172 L 103 176 L 189 176 L 190 175 L 190 172 L 175 172 L 173 170 L 173 162 L 172 161 L 172 153 L 171 152 L 171 144 L 170 143 L 170 135 L 169 134 L 169 128 L 168 127 L 168 120 L 167 119 L 167 111 L 166 110 L 166 102 L 165 101 L 165 92 L 164 91 L 164 87 L 165 86 L 170 86 L 170 77 L 166 77 L 164 75 L 164 64 L 162 64 L 161 65 L 161 75 L 159 77 L 134 77 L 133 76 L 133 52 L 134 51 L 153 51 L 159 45 L 159 41 L 158 40 L 157 40 L 155 38 L 154 38 L 153 37 L 151 37 L 150 36 L 149 36 L 148 35 L 148 30 Z"/></svg>