<svg xmlns="http://www.w3.org/2000/svg" viewBox="0 0 295 221"><path fill="#0040A3" d=" M 146 90 L 145 91 L 144 91 L 143 92 L 142 92 L 136 98 L 136 99 L 135 100 L 135 102 L 134 103 L 134 109 L 135 110 L 135 112 L 136 113 L 136 114 L 138 116 L 138 117 L 139 118 L 140 118 L 142 120 L 143 120 L 144 121 L 145 121 L 146 122 L 155 122 L 156 121 L 157 121 L 158 120 L 159 120 L 164 115 L 164 114 L 165 113 L 165 112 L 166 111 L 166 103 L 164 103 L 163 104 L 162 104 L 161 105 L 156 105 L 152 101 L 152 100 L 151 99 L 151 95 L 152 94 L 152 93 L 153 92 L 153 90 Z M 93 79 L 91 81 L 90 81 L 88 83 L 87 83 L 82 88 L 81 88 L 72 97 L 72 98 L 66 104 L 66 108 L 67 109 L 67 110 L 78 121 L 78 122 L 79 122 L 85 128 L 86 128 L 89 131 L 90 131 L 92 133 L 95 133 L 95 121 L 92 118 L 91 118 L 80 107 L 80 106 L 94 92 L 95 92 L 95 79 Z M 105 60 L 104 61 L 104 152 L 157 152 L 158 151 L 164 151 L 165 150 L 169 150 L 170 149 L 173 149 L 174 148 L 176 148 L 177 147 L 179 147 L 180 146 L 181 146 L 182 145 L 184 145 L 185 144 L 186 144 L 187 143 L 189 143 L 190 142 L 191 142 L 192 141 L 193 141 L 195 139 L 196 139 L 197 138 L 198 138 L 200 136 L 201 136 L 203 134 L 204 134 L 207 131 L 208 131 L 210 129 L 211 129 L 230 110 L 230 109 L 231 108 L 231 104 L 228 101 L 228 100 L 215 87 L 214 87 L 209 82 L 208 82 L 205 79 L 204 79 L 202 77 L 201 77 L 199 75 L 198 75 L 197 74 L 196 74 L 194 72 L 193 72 L 192 71 L 191 71 L 190 70 L 189 70 L 188 69 L 187 69 L 186 68 L 184 68 L 183 67 L 182 67 L 181 66 L 179 66 L 178 65 L 177 65 L 176 64 L 173 64 L 172 63 L 169 63 L 168 62 L 164 62 L 163 61 L 154 61 L 153 60 L 146 60 L 145 61 L 135 61 L 134 62 L 130 62 L 129 63 L 128 63 L 128 77 L 132 77 L 133 76 L 136 76 L 137 75 L 143 75 L 144 74 L 153 74 L 154 75 L 158 75 L 159 76 L 161 76 L 162 77 L 163 77 L 164 78 L 165 78 L 166 79 L 167 79 L 169 81 L 170 81 L 171 82 L 171 83 L 172 83 L 175 86 L 175 87 L 177 89 L 177 90 L 179 92 L 179 93 L 180 94 L 180 96 L 181 97 L 181 100 L 182 101 L 182 112 L 181 113 L 181 116 L 180 117 L 180 118 L 179 119 L 179 120 L 178 121 L 178 122 L 177 123 L 177 124 L 168 133 L 167 133 L 166 134 L 165 134 L 164 135 L 163 135 L 162 136 L 160 136 L 159 137 L 156 137 L 155 138 L 120 138 L 118 136 L 118 60 Z"/></svg>