<svg xmlns="http://www.w3.org/2000/svg" viewBox="0 0 295 221"><path fill="#0040A3" d=" M 144 58 L 143 59 L 140 59 L 139 60 L 138 60 L 137 61 L 136 61 L 135 62 L 134 62 L 133 63 L 132 63 L 125 70 L 125 71 L 124 72 L 124 73 L 123 74 L 123 75 L 122 76 L 122 77 L 121 78 L 121 81 L 120 82 L 120 92 L 121 93 L 121 96 L 122 97 L 122 98 L 123 99 L 123 100 L 124 101 L 124 102 L 126 104 L 126 105 L 131 110 L 132 110 L 133 111 L 134 111 L 137 114 L 137 170 L 138 171 L 138 172 L 140 174 L 142 174 L 142 122 L 144 120 L 146 120 L 148 122 L 148 180 L 150 180 L 160 170 L 160 157 L 156 153 L 155 153 L 154 152 L 154 150 L 156 148 L 157 148 L 159 146 L 159 145 L 160 144 L 160 142 L 153 135 L 153 134 L 160 127 L 160 114 L 163 111 L 164 111 L 165 110 L 166 110 L 171 105 L 171 104 L 173 102 L 173 101 L 174 100 L 174 99 L 175 98 L 175 97 L 176 96 L 176 92 L 177 91 L 177 82 L 176 81 L 176 78 L 175 77 L 175 76 L 174 75 L 174 74 L 173 73 L 173 72 L 172 71 L 172 70 L 165 63 L 164 63 L 163 62 L 162 62 L 161 61 L 160 61 L 159 60 L 157 60 L 156 59 L 154 59 L 153 58 Z M 147 31 L 142 36 L 142 37 L 141 38 L 141 40 L 142 41 L 142 44 L 141 45 L 141 46 L 139 48 L 138 48 L 137 49 L 135 49 L 134 48 L 133 48 L 130 45 L 130 41 L 129 41 L 128 40 L 127 40 L 126 39 L 122 39 L 122 42 L 123 43 L 123 45 L 124 46 L 124 48 L 125 49 L 125 51 L 126 52 L 126 55 L 127 56 L 127 58 L 130 58 L 132 56 L 133 56 L 134 55 L 135 55 L 136 54 L 138 54 L 139 53 L 142 53 L 143 52 L 154 52 L 155 53 L 158 53 L 159 54 L 161 54 L 162 55 L 163 55 L 164 56 L 165 56 L 167 58 L 170 58 L 170 55 L 171 54 L 171 52 L 172 51 L 172 49 L 173 48 L 173 46 L 174 45 L 174 43 L 175 42 L 175 41 L 176 40 L 176 38 L 173 38 L 172 39 L 171 39 L 170 40 L 168 40 L 167 41 L 167 45 L 164 48 L 163 48 L 162 49 L 160 49 L 159 48 L 158 48 L 156 46 L 156 45 L 155 44 L 155 41 L 156 40 L 156 37 L 150 31 Z"/></svg>