<svg xmlns="http://www.w3.org/2000/svg" viewBox="0 0 295 221"><path fill="#0040A3" d=" M 65 51 L 63 53 L 63 56 L 65 58 L 104 58 L 105 59 L 106 59 L 107 60 L 108 60 L 112 64 L 112 65 L 114 67 L 114 68 L 115 69 L 115 71 L 117 73 L 117 74 L 118 75 L 118 76 L 119 77 L 119 78 L 125 84 L 126 84 L 127 85 L 128 85 L 129 86 L 131 86 L 132 87 L 151 87 L 152 88 L 153 88 L 155 90 L 155 92 L 153 94 L 152 94 L 151 95 L 128 95 L 127 94 L 121 94 L 120 93 L 118 93 L 116 91 L 115 91 L 112 88 L 112 87 L 110 85 L 110 84 L 108 82 L 108 81 L 104 77 L 103 77 L 102 76 L 101 76 L 100 75 L 82 75 L 80 77 L 80 80 L 82 82 L 97 82 L 98 83 L 99 83 L 103 87 L 103 88 L 105 90 L 105 91 L 107 93 L 107 94 L 109 96 L 110 96 L 112 98 L 113 98 L 114 99 L 115 99 L 117 101 L 116 102 L 65 102 L 63 104 L 63 107 L 65 109 L 115 109 L 116 110 L 114 112 L 113 112 L 111 114 L 110 114 L 108 116 L 108 117 L 104 121 L 104 122 L 103 123 L 103 124 L 99 128 L 98 128 L 97 129 L 82 129 L 80 131 L 80 134 L 82 136 L 99 136 L 100 135 L 102 135 L 103 134 L 104 134 L 108 130 L 108 129 L 110 127 L 110 126 L 111 125 L 111 124 L 116 119 L 117 119 L 118 118 L 119 118 L 120 117 L 122 117 L 123 116 L 152 116 L 155 119 L 155 121 L 153 123 L 152 123 L 151 124 L 132 124 L 131 125 L 129 125 L 128 126 L 127 126 L 126 127 L 125 127 L 119 133 L 119 134 L 117 136 L 117 137 L 116 138 L 116 139 L 115 140 L 115 142 L 114 143 L 114 144 L 112 146 L 112 147 L 108 151 L 107 151 L 106 152 L 103 152 L 102 153 L 64 153 L 64 154 L 63 155 L 63 158 L 65 160 L 106 160 L 107 159 L 109 159 L 111 157 L 112 157 L 114 155 L 115 155 L 117 153 L 117 152 L 119 150 L 119 149 L 121 147 L 121 146 L 122 145 L 122 143 L 123 142 L 123 141 L 124 140 L 124 139 L 125 138 L 125 137 L 128 134 L 129 134 L 131 132 L 133 132 L 134 131 L 167 131 L 168 132 L 168 155 L 170 155 L 171 154 L 172 154 L 175 151 L 176 151 L 179 148 L 180 148 L 184 144 L 185 144 L 188 141 L 189 141 L 193 137 L 194 137 L 197 134 L 198 134 L 202 130 L 203 130 L 206 127 L 207 127 L 211 123 L 212 123 L 215 120 L 216 120 L 220 116 L 221 116 L 224 113 L 225 113 L 229 109 L 230 109 L 233 106 L 233 104 L 232 104 L 228 100 L 227 100 L 224 97 L 223 97 L 219 93 L 218 93 L 214 89 L 213 89 L 210 86 L 209 86 L 205 82 L 204 82 L 201 79 L 200 79 L 196 75 L 195 75 L 193 73 L 192 73 L 187 68 L 186 68 L 183 65 L 182 65 L 178 61 L 177 61 L 174 58 L 173 58 L 170 55 L 168 55 L 168 78 L 166 80 L 135 80 L 134 79 L 132 79 L 131 78 L 130 78 L 124 72 L 124 71 L 123 70 L 123 68 L 122 67 L 122 66 L 121 65 L 121 64 L 120 63 L 120 62 L 118 60 L 118 59 L 114 55 L 113 55 L 111 53 L 110 53 L 109 52 L 107 52 L 106 51 Z"/></svg>