<svg xmlns="http://www.w3.org/2000/svg" viewBox="0 0 295 221"><path fill="#0040A3" d=" M 136 25 L 135 26 L 131 26 L 130 27 L 127 27 L 126 28 L 124 28 L 123 29 L 122 29 L 121 30 L 120 30 L 119 31 L 118 31 L 117 32 L 116 32 L 115 33 L 114 33 L 113 34 L 112 34 L 111 35 L 110 35 L 108 37 L 107 37 L 103 41 L 102 41 L 97 46 L 97 47 L 93 51 L 93 52 L 90 55 L 90 56 L 89 57 L 89 58 L 88 59 L 88 60 L 87 61 L 87 62 L 86 63 L 86 64 L 85 65 L 85 66 L 84 67 L 84 69 L 83 70 L 83 73 L 82 74 L 82 76 L 81 77 L 81 81 L 80 82 L 80 102 L 81 103 L 81 107 L 82 108 L 82 111 L 83 112 L 83 114 L 84 115 L 84 117 L 85 118 L 85 119 L 86 120 L 86 121 L 87 122 L 87 123 L 88 124 L 88 125 L 89 126 L 89 127 L 90 128 L 90 129 L 92 131 L 92 132 L 96 136 L 96 137 L 104 145 L 105 145 L 108 148 L 109 148 L 110 149 L 111 149 L 113 151 L 114 151 L 115 152 L 116 152 L 117 153 L 118 153 L 119 154 L 120 154 L 121 155 L 123 155 L 124 156 L 125 156 L 126 157 L 128 157 L 129 158 L 132 158 L 133 159 L 140 159 L 141 160 L 151 160 L 152 159 L 159 159 L 160 158 L 164 158 L 165 157 L 167 157 L 168 156 L 170 156 L 171 155 L 172 155 L 173 154 L 174 154 L 175 153 L 177 153 L 179 151 L 180 151 L 182 149 L 183 149 L 185 147 L 186 147 L 188 145 L 189 145 L 197 137 L 197 136 L 201 132 L 201 131 L 203 129 L 203 128 L 205 126 L 205 125 L 206 124 L 206 123 L 207 122 L 207 121 L 208 120 L 208 118 L 209 117 L 209 115 L 210 114 L 210 112 L 211 111 L 211 109 L 212 108 L 212 105 L 213 104 L 213 81 L 212 80 L 212 77 L 211 76 L 211 73 L 210 72 L 210 70 L 209 69 L 209 67 L 208 66 L 208 64 L 207 63 L 207 62 L 205 60 L 205 59 L 204 58 L 204 57 L 202 55 L 202 54 L 201 53 L 201 52 L 197 48 L 197 47 L 191 41 L 190 41 L 186 37 L 185 37 L 183 35 L 182 35 L 180 33 L 179 33 L 178 32 L 177 32 L 176 31 L 175 31 L 174 30 L 173 30 L 172 29 L 170 29 L 169 28 L 167 28 L 166 27 L 163 27 L 162 26 L 158 26 L 157 25 Z"/></svg>