<svg xmlns="http://www.w3.org/2000/svg" viewBox="0 0 295 221"><path fill="#0040A3" d=" M 144 25 L 143 26 L 142 26 L 141 27 L 141 28 L 139 30 L 139 37 L 140 38 L 140 39 L 142 41 L 143 41 L 145 43 L 145 57 L 144 58 L 141 58 L 140 59 L 137 59 L 136 60 L 134 60 L 133 61 L 132 61 L 130 63 L 129 63 L 127 65 L 125 65 L 115 55 L 115 48 L 114 47 L 114 46 L 113 45 L 113 44 L 112 43 L 111 43 L 110 42 L 103 42 L 102 43 L 101 43 L 99 45 L 99 46 L 98 47 L 98 54 L 99 55 L 99 56 L 102 59 L 110 59 L 121 70 L 121 71 L 118 74 L 118 75 L 117 76 L 117 77 L 116 78 L 116 80 L 115 81 L 115 83 L 114 84 L 114 88 L 112 90 L 99 90 L 97 88 L 97 87 L 94 84 L 92 84 L 91 83 L 87 83 L 86 84 L 85 84 L 84 85 L 83 85 L 82 86 L 82 87 L 81 88 L 81 90 L 80 91 L 80 94 L 81 95 L 81 96 L 82 97 L 82 98 L 84 100 L 85 100 L 86 101 L 92 101 L 93 100 L 94 100 L 97 97 L 97 96 L 98 95 L 112 95 L 114 97 L 114 100 L 115 101 L 115 103 L 116 104 L 116 106 L 117 107 L 117 108 L 118 109 L 118 110 L 119 111 L 119 112 L 121 114 L 121 115 L 111 125 L 103 125 L 102 126 L 101 126 L 99 128 L 99 129 L 98 130 L 98 137 L 99 138 L 99 139 L 102 142 L 104 142 L 105 143 L 108 143 L 109 142 L 110 142 L 111 141 L 112 141 L 114 139 L 114 138 L 115 137 L 115 129 L 125 119 L 126 119 L 128 121 L 129 121 L 130 122 L 131 122 L 132 123 L 133 123 L 134 124 L 135 124 L 136 125 L 138 125 L 139 126 L 142 126 L 143 127 L 144 127 L 145 128 L 145 141 L 140 146 L 140 147 L 139 148 L 139 154 L 140 155 L 140 156 L 143 159 L 144 159 L 145 160 L 150 160 L 151 159 L 152 159 L 153 158 L 154 158 L 154 157 L 156 155 L 156 147 L 155 146 L 155 145 L 154 144 L 153 144 L 150 141 L 150 128 L 151 127 L 152 127 L 153 126 L 157 126 L 158 125 L 159 125 L 160 124 L 162 124 L 163 123 L 164 123 L 166 121 L 167 121 L 168 120 L 169 120 L 170 119 L 181 130 L 180 131 L 180 136 L 181 137 L 181 138 L 182 139 L 182 140 L 183 141 L 184 141 L 185 142 L 187 142 L 188 143 L 190 143 L 191 142 L 193 142 L 194 141 L 195 141 L 196 140 L 196 139 L 197 138 L 197 137 L 198 136 L 198 131 L 197 130 L 197 129 L 193 125 L 185 125 L 175 115 L 175 113 L 176 112 L 176 111 L 178 109 L 178 108 L 179 107 L 179 106 L 180 105 L 180 103 L 181 102 L 181 99 L 182 98 L 182 96 L 183 95 L 197 95 L 199 97 L 199 98 L 201 100 L 202 100 L 203 101 L 210 101 L 214 97 L 214 96 L 215 95 L 215 89 L 214 88 L 214 87 L 211 84 L 209 84 L 208 83 L 204 83 L 203 84 L 202 84 L 196 90 L 186 90 L 185 89 L 183 89 L 182 88 L 182 86 L 181 85 L 181 82 L 180 81 L 180 79 L 179 78 L 179 77 L 178 76 L 178 75 L 176 73 L 176 72 L 174 70 L 185 59 L 193 59 L 197 55 L 197 54 L 198 53 L 198 48 L 197 47 L 197 46 L 193 42 L 191 42 L 190 41 L 188 41 L 187 42 L 185 42 L 181 46 L 181 47 L 180 48 L 180 53 L 181 54 L 181 55 L 175 61 L 174 61 L 174 62 L 171 65 L 169 65 L 167 63 L 166 63 L 165 62 L 164 62 L 162 60 L 160 60 L 159 59 L 156 59 L 155 58 L 152 58 L 150 56 L 150 43 L 152 41 L 153 41 L 156 38 L 156 36 L 157 35 L 157 33 L 156 32 L 156 29 L 153 26 L 152 26 L 151 25 Z"/></svg>