<svg xmlns="http://www.w3.org/2000/svg" viewBox="0 0 295 221"><path fill="#0040A3" d=" M 145 38 L 144 39 L 141 39 L 140 40 L 139 40 L 138 41 L 137 41 L 136 42 L 135 42 L 127 50 L 127 51 L 126 52 L 126 53 L 124 55 L 124 57 L 123 58 L 123 61 L 122 62 L 122 71 L 123 72 L 123 75 L 124 76 L 124 78 L 125 79 L 125 80 L 127 82 L 127 83 L 129 85 L 129 86 L 132 89 L 132 91 L 131 92 L 131 93 L 130 94 L 130 95 L 129 96 L 129 97 L 127 99 L 127 100 L 126 101 L 126 102 L 124 104 L 124 105 L 123 106 L 123 107 L 122 108 L 122 109 L 121 110 L 121 111 L 120 112 L 120 113 L 118 115 L 118 116 L 117 117 L 116 117 L 115 116 L 111 116 L 110 115 L 105 115 L 104 116 L 100 116 L 99 117 L 97 117 L 96 118 L 95 118 L 94 119 L 93 119 L 92 120 L 91 120 L 83 128 L 83 129 L 81 131 L 81 133 L 80 134 L 80 136 L 79 137 L 79 151 L 80 152 L 80 154 L 81 155 L 81 156 L 82 157 L 82 158 L 83 159 L 83 160 L 85 162 L 85 163 L 89 167 L 90 167 L 92 169 L 93 169 L 94 170 L 95 170 L 96 171 L 97 171 L 98 172 L 100 172 L 101 173 L 113 173 L 114 172 L 116 172 L 117 171 L 119 171 L 120 170 L 121 170 L 123 168 L 124 168 L 131 161 L 131 160 L 132 159 L 132 158 L 133 157 L 133 156 L 134 155 L 134 154 L 135 153 L 135 150 L 137 148 L 165 148 L 166 149 L 166 151 L 167 152 L 167 154 L 168 155 L 168 156 L 169 157 L 169 158 L 170 159 L 170 160 L 171 161 L 171 162 L 177 168 L 178 168 L 179 169 L 180 169 L 181 170 L 182 170 L 183 171 L 184 171 L 185 172 L 187 172 L 188 173 L 200 173 L 201 172 L 203 172 L 204 171 L 206 171 L 207 170 L 208 170 L 210 168 L 211 168 L 217 162 L 217 161 L 219 159 L 219 158 L 221 156 L 221 154 L 222 153 L 222 148 L 223 147 L 223 140 L 222 139 L 222 135 L 221 134 L 221 133 L 220 132 L 220 131 L 219 130 L 219 129 L 217 127 L 217 126 L 211 120 L 210 120 L 209 119 L 208 119 L 207 118 L 206 118 L 205 117 L 203 117 L 202 116 L 198 116 L 197 115 L 192 115 L 191 116 L 187 116 L 186 117 L 185 117 L 182 114 L 182 113 L 181 112 L 181 111 L 180 110 L 180 109 L 179 108 L 179 107 L 178 106 L 178 105 L 176 103 L 176 102 L 175 101 L 175 100 L 173 98 L 173 97 L 172 96 L 172 95 L 171 94 L 171 93 L 169 91 L 169 89 L 174 84 L 174 83 L 175 82 L 175 81 L 176 80 L 176 79 L 177 78 L 177 77 L 178 76 L 178 74 L 179 73 L 179 61 L 178 60 L 178 57 L 177 56 L 177 55 L 176 54 L 176 53 L 175 52 L 175 51 L 174 50 L 174 49 L 168 43 L 167 43 L 166 42 L 165 42 L 164 41 L 163 41 L 162 40 L 161 40 L 160 39 L 158 39 L 157 38 Z"/></svg>