<svg xmlns="http://www.w3.org/2000/svg" viewBox="0 0 295 221"><path fill="#0040A3" d=" M 118 84 L 117 85 L 112 85 L 111 86 L 106 86 L 105 87 L 100 87 L 99 88 L 95 88 L 95 90 L 97 92 L 97 93 L 98 94 L 98 112 L 97 113 L 97 142 L 96 143 L 96 164 L 95 165 L 95 168 L 94 169 L 94 170 L 90 174 L 90 176 L 93 176 L 94 175 L 100 175 L 101 174 L 106 174 L 107 173 L 112 173 L 113 172 L 118 172 L 119 171 L 125 171 L 126 170 L 131 170 L 132 169 L 139 169 L 140 168 L 146 168 L 147 167 L 152 167 L 153 166 L 158 166 L 159 165 L 162 165 L 163 164 L 164 164 L 168 160 L 168 159 L 169 158 L 169 156 L 170 155 L 170 152 L 169 151 L 169 149 L 167 147 L 167 146 L 163 146 L 162 147 L 159 147 L 158 148 L 153 148 L 152 149 L 147 149 L 146 150 L 141 150 L 140 151 L 134 151 L 133 152 L 128 152 L 127 153 L 123 153 L 122 152 L 122 84 Z M 178 36 L 177 37 L 174 37 L 173 38 L 171 38 L 170 39 L 169 39 L 168 40 L 167 40 L 166 41 L 164 41 L 163 42 L 162 42 L 161 41 L 157 41 L 156 40 L 148 40 L 147 39 L 141 39 L 140 40 L 131 40 L 130 41 L 125 41 L 124 42 L 121 42 L 120 43 L 117 43 L 116 44 L 114 44 L 113 45 L 112 45 L 111 46 L 109 46 L 108 47 L 107 47 L 106 48 L 105 48 L 104 49 L 103 49 L 101 51 L 100 51 L 95 56 L 95 57 L 93 59 L 93 60 L 92 61 L 92 63 L 91 64 L 91 70 L 88 73 L 87 73 L 86 74 L 85 74 L 84 75 L 83 75 L 80 78 L 80 81 L 81 82 L 89 82 L 90 81 L 92 81 L 93 80 L 95 80 L 96 79 L 99 79 L 100 78 L 103 78 L 104 77 L 107 77 L 108 76 L 113 76 L 114 75 L 130 75 L 136 81 L 136 82 L 140 86 L 141 86 L 143 88 L 144 88 L 145 89 L 146 89 L 147 90 L 149 90 L 150 91 L 157 91 L 157 89 L 156 88 L 156 87 L 154 85 L 154 84 L 153 83 L 153 82 L 152 81 L 152 80 L 154 78 L 155 79 L 157 79 L 158 80 L 160 80 L 161 81 L 162 81 L 163 82 L 164 82 L 165 83 L 166 83 L 168 85 L 169 85 L 170 86 L 171 86 L 175 90 L 176 90 L 180 94 L 180 95 L 184 99 L 184 100 L 186 102 L 186 103 L 187 104 L 187 105 L 188 106 L 188 108 L 189 109 L 189 112 L 190 113 L 190 122 L 189 123 L 189 126 L 188 127 L 188 128 L 187 129 L 187 130 L 186 131 L 186 132 L 184 134 L 182 134 L 181 133 L 180 133 L 179 132 L 176 132 L 175 131 L 168 131 L 167 132 L 164 132 L 163 133 L 161 133 L 160 134 L 158 134 L 157 135 L 157 137 L 162 137 L 163 138 L 164 138 L 165 139 L 166 139 L 169 142 L 171 142 L 172 143 L 174 143 L 175 144 L 175 147 L 176 148 L 176 151 L 177 152 L 177 157 L 176 158 L 176 163 L 178 163 L 179 162 L 180 162 L 181 161 L 182 161 L 186 157 L 186 156 L 188 154 L 188 153 L 189 152 L 189 149 L 190 148 L 190 143 L 189 142 L 189 140 L 191 138 L 192 138 L 203 127 L 203 126 L 206 123 L 206 122 L 207 121 L 207 120 L 208 119 L 208 118 L 209 117 L 209 116 L 210 115 L 210 113 L 211 112 L 211 109 L 212 108 L 212 101 L 213 100 L 213 98 L 212 97 L 212 89 L 211 88 L 211 85 L 210 84 L 210 82 L 209 81 L 209 79 L 208 78 L 208 77 L 207 76 L 207 75 L 206 74 L 206 73 L 204 71 L 204 70 L 202 68 L 202 67 L 192 57 L 191 57 L 189 55 L 189 54 L 188 53 L 188 49 L 189 48 L 189 47 L 192 44 L 193 44 L 195 42 L 197 42 L 198 41 L 200 41 L 200 39 L 199 38 L 197 38 L 196 37 L 193 37 L 192 36 Z"/></svg>