<svg xmlns="http://www.w3.org/2000/svg" viewBox="0 0 295 221"><path fill="#0040A3" d=" M 145 36 L 143 38 L 142 38 L 140 40 L 139 40 L 138 41 L 137 41 L 136 42 L 135 42 L 134 43 L 133 43 L 132 44 L 131 44 L 130 45 L 129 45 L 128 46 L 127 46 L 126 47 L 125 47 L 124 48 L 122 48 L 121 49 L 119 49 L 118 50 L 115 50 L 114 51 L 111 51 L 110 52 L 107 52 L 106 53 L 102 53 L 101 54 L 93 54 L 92 55 L 89 55 L 89 59 L 88 60 L 88 79 L 89 80 L 89 91 L 90 92 L 90 97 L 91 98 L 91 102 L 92 103 L 92 107 L 93 108 L 93 111 L 94 112 L 94 115 L 95 116 L 95 118 L 96 119 L 96 121 L 97 122 L 97 123 L 98 124 L 98 126 L 99 127 L 99 128 L 100 129 L 100 130 L 101 131 L 101 132 L 102 133 L 102 134 L 103 135 L 103 136 L 104 137 L 104 138 L 106 140 L 106 141 L 108 143 L 108 144 L 111 147 L 111 148 L 122 159 L 125 159 L 128 156 L 128 152 L 120 144 L 120 143 L 116 139 L 116 138 L 114 136 L 114 135 L 112 133 L 112 132 L 111 131 L 111 130 L 110 129 L 110 128 L 109 127 L 109 126 L 108 125 L 108 124 L 107 123 L 107 122 L 106 121 L 106 119 L 105 118 L 105 117 L 104 116 L 104 112 L 105 111 L 107 111 L 107 109 L 106 108 L 106 106 L 105 105 L 105 103 L 104 102 L 104 97 L 103 96 L 103 93 L 104 92 L 104 87 L 105 86 L 105 84 L 106 83 L 106 82 L 107 81 L 110 84 L 110 85 L 116 91 L 117 91 L 119 93 L 121 93 L 122 94 L 125 94 L 126 95 L 134 95 L 135 96 L 137 96 L 138 97 L 140 97 L 141 98 L 143 98 L 145 100 L 147 100 L 147 47 L 148 46 L 149 47 L 150 47 L 151 48 L 152 48 L 154 50 L 155 50 L 156 51 L 157 51 L 158 52 L 159 52 L 160 53 L 162 53 L 163 54 L 164 54 L 165 55 L 166 55 L 167 56 L 168 56 L 169 57 L 171 57 L 172 58 L 174 58 L 175 59 L 178 59 L 179 60 L 182 60 L 183 61 L 186 61 L 187 62 L 192 62 L 193 63 L 197 63 L 198 64 L 198 85 L 197 86 L 197 94 L 196 95 L 196 100 L 195 101 L 195 104 L 194 105 L 194 108 L 193 109 L 193 111 L 192 112 L 192 114 L 191 115 L 191 118 L 190 119 L 190 120 L 189 121 L 189 122 L 188 123 L 188 125 L 186 127 L 186 128 L 185 129 L 185 130 L 184 131 L 184 132 L 183 133 L 183 134 L 181 136 L 181 137 L 178 140 L 178 141 L 172 147 L 171 147 L 170 148 L 169 148 L 168 149 L 162 149 L 161 148 L 160 148 L 156 144 L 156 143 L 155 142 L 155 140 L 154 139 L 154 133 L 155 132 L 155 131 L 156 130 L 156 129 L 158 127 L 158 126 L 160 124 L 161 124 L 163 122 L 164 122 L 166 120 L 167 120 L 168 119 L 169 119 L 170 118 L 171 118 L 172 117 L 173 117 L 174 116 L 175 116 L 182 109 L 182 108 L 183 107 L 183 106 L 184 105 L 184 103 L 185 102 L 185 99 L 186 98 L 186 94 L 184 94 L 182 96 L 181 96 L 179 98 L 178 98 L 177 99 L 176 99 L 175 100 L 170 100 L 169 101 L 162 101 L 161 102 L 158 102 L 157 103 L 156 103 L 155 104 L 154 104 L 150 108 L 150 109 L 148 111 L 147 111 L 146 110 L 146 109 L 141 104 L 140 104 L 139 103 L 138 103 L 137 102 L 134 102 L 133 101 L 126 101 L 125 100 L 121 100 L 120 99 L 118 99 L 117 98 L 116 98 L 113 95 L 110 95 L 110 101 L 111 102 L 111 104 L 112 105 L 112 106 L 113 107 L 113 108 L 121 116 L 122 116 L 123 117 L 124 117 L 126 119 L 127 119 L 128 120 L 129 120 L 130 121 L 131 121 L 133 123 L 134 123 L 139 128 L 139 129 L 140 130 L 140 131 L 141 132 L 141 134 L 142 135 L 142 139 L 141 140 L 141 144 L 140 145 L 140 147 L 139 148 L 139 149 L 138 150 L 138 151 L 137 152 L 137 153 L 136 154 L 136 155 L 135 156 L 135 157 L 129 163 L 129 165 L 130 166 L 131 166 L 133 168 L 134 168 L 136 170 L 137 170 L 139 172 L 140 172 L 142 174 L 143 174 L 144 175 L 146 175 L 147 176 L 149 176 L 150 175 L 151 175 L 152 174 L 153 174 L 155 172 L 156 172 L 157 171 L 158 171 L 160 169 L 161 169 L 162 168 L 163 168 L 167 164 L 168 164 L 171 161 L 172 161 L 183 150 L 183 149 L 187 145 L 187 144 L 189 142 L 189 141 L 191 139 L 191 138 L 192 137 L 192 136 L 193 135 L 193 134 L 194 133 L 194 132 L 195 131 L 195 130 L 196 129 L 196 128 L 197 127 L 197 126 L 198 125 L 198 124 L 199 123 L 199 121 L 200 120 L 200 118 L 201 117 L 201 114 L 202 113 L 202 110 L 203 109 L 203 106 L 204 105 L 204 102 L 205 101 L 205 96 L 206 95 L 206 86 L 207 85 L 207 55 L 205 55 L 204 54 L 195 54 L 194 53 L 190 53 L 189 52 L 186 52 L 185 51 L 182 51 L 181 50 L 178 50 L 177 49 L 175 49 L 174 48 L 172 48 L 171 47 L 170 47 L 169 46 L 168 46 L 167 45 L 166 45 L 165 44 L 163 44 L 162 43 L 161 43 L 160 42 L 159 42 L 157 40 L 156 40 L 155 39 L 154 39 L 153 38 L 152 38 L 150 36 Z"/></svg>